<mxfile host="app.diagrams.net" modified="2022-10-04T08:32:19.370Z" agent="5.0 (Windows NT 10.0; Win64; x64) AppleWebKit/537.36 (KHTML, like Gecko) Chrome/106.0.0.0 Safari/537.36" etag="_uQrc8vAVV-Pqr6MAWTW" version="20.4.0" type="github">
  <diagram id="FnJ70ibd-aPzjM3NYlbM" name="페이지-1">
    <mxGraphModel dx="806" dy="454" grid="1" gridSize="10" guides="1" tooltips="1" connect="1" arrows="1" fold="1" page="1" pageScale="1" pageWidth="827" pageHeight="1169" math="0" shadow="0">
      <root>
        <mxCell id="0" />
        <mxCell id="1" parent="0" />
        <mxCell id="cN_PRAIVx_PUtPAy53k4-1" value="Actor" style="shape=umlActor;verticalLabelPosition=bottom;verticalAlign=top;html=1;outlineConnect=0;" vertex="1" parent="1">
          <mxGeometry x="50" y="440" width="30" height="60" as="geometry" />
        </mxCell>
        <mxCell id="cN_PRAIVx_PUtPAy53k4-2" value="게시판 서비스" style="shape=umlFrame;whiteSpace=wrap;html=1;width=100;height=30;" vertex="1" parent="1">
          <mxGeometry x="190" y="230" width="600" height="640" as="geometry" />
        </mxCell>
        <mxCell id="cN_PRAIVx_PUtPAy53k4-16" style="rounded=0;orthogonalLoop=1;jettySize=auto;html=1;exitX=0;exitY=0.5;exitDx=0;exitDy=0;entryX=1;entryY=0.3333333333333333;entryDx=0;entryDy=0;entryPerimeter=0;endArrow=none;endFill=0;" edge="1" parent="1" source="cN_PRAIVx_PUtPAy53k4-3" target="cN_PRAIVx_PUtPAy53k4-1">
          <mxGeometry relative="1" as="geometry" />
        </mxCell>
        <mxCell id="cN_PRAIVx_PUtPAy53k4-3" value="회원 가입" style="rounded=1;whiteSpace=wrap;html=1;arcSize=40;fontColor=#000000;fillColor=#ffffc0;strokeColor=#ff0000;" vertex="1" parent="1">
          <mxGeometry x="210" y="410" width="120" height="40" as="geometry" />
        </mxCell>
        <mxCell id="cN_PRAIVx_PUtPAy53k4-18" style="rounded=0;orthogonalLoop=1;jettySize=auto;html=1;exitX=0;exitY=0.5;exitDx=0;exitDy=0;endArrow=none;endFill=0;" edge="1" parent="1" source="cN_PRAIVx_PUtPAy53k4-5">
          <mxGeometry relative="1" as="geometry">
            <mxPoint x="80" y="460" as="targetPoint" />
          </mxGeometry>
        </mxCell>
        <mxCell id="cN_PRAIVx_PUtPAy53k4-38" style="rounded=0;orthogonalLoop=1;jettySize=auto;html=1;exitX=1;exitY=0.5;exitDx=0;exitDy=0;entryX=0;entryY=0.5;entryDx=0;entryDy=0;strokeColor=default;startArrow=block;startFill=1;endArrow=none;endFill=0;" edge="1" parent="1" source="cN_PRAIVx_PUtPAy53k4-5" target="cN_PRAIVx_PUtPAy53k4-34">
          <mxGeometry relative="1" as="geometry" />
        </mxCell>
        <mxCell id="cN_PRAIVx_PUtPAy53k4-5" value="게시판 보기" style="rounded=1;whiteSpace=wrap;html=1;arcSize=40;fontColor=#000000;fillColor=#ffffc0;strokeColor=#ff0000;" vertex="1" parent="1">
          <mxGeometry x="210" y="530" width="120" height="40" as="geometry" />
        </mxCell>
        <mxCell id="cN_PRAIVx_PUtPAy53k4-19" style="rounded=0;orthogonalLoop=1;jettySize=auto;html=1;exitX=0;exitY=0.5;exitDx=0;exitDy=0;endArrow=none;endFill=0;" edge="1" parent="1" source="cN_PRAIVx_PUtPAy53k4-7">
          <mxGeometry relative="1" as="geometry">
            <mxPoint x="80" y="460" as="targetPoint" />
          </mxGeometry>
        </mxCell>
        <mxCell id="cN_PRAIVx_PUtPAy53k4-39" style="edgeStyle=none;rounded=0;orthogonalLoop=1;jettySize=auto;html=1;exitX=1;exitY=0.5;exitDx=0;exitDy=0;entryX=0;entryY=0.5;entryDx=0;entryDy=0;strokeColor=default;startArrow=block;startFill=1;endArrow=none;endFill=0;" edge="1" parent="1" source="cN_PRAIVx_PUtPAy53k4-7" target="cN_PRAIVx_PUtPAy53k4-34">
          <mxGeometry relative="1" as="geometry" />
        </mxCell>
        <mxCell id="cN_PRAIVx_PUtPAy53k4-7" value="게시글 보기" style="rounded=1;whiteSpace=wrap;html=1;arcSize=40;fontColor=#000000;fillColor=#ffffc0;strokeColor=#ff0000;" vertex="1" parent="1">
          <mxGeometry x="210" y="640" width="120" height="40" as="geometry" />
        </mxCell>
        <mxCell id="cN_PRAIVx_PUtPAy53k4-17" style="rounded=0;orthogonalLoop=1;jettySize=auto;html=1;exitX=0;exitY=0.5;exitDx=0;exitDy=0;entryX=1;entryY=0.3333333333333333;entryDx=0;entryDy=0;entryPerimeter=0;endArrow=none;endFill=0;" edge="1" parent="1" source="cN_PRAIVx_PUtPAy53k4-8" target="cN_PRAIVx_PUtPAy53k4-1">
          <mxGeometry relative="1" as="geometry">
            <mxPoint x="120" y="490" as="targetPoint" />
          </mxGeometry>
        </mxCell>
        <mxCell id="cN_PRAIVx_PUtPAy53k4-21" value="&amp;lt;&amp;lt;include&amp;gt;&amp;gt;" style="edgeStyle=orthogonalEdgeStyle;rounded=0;orthogonalLoop=1;jettySize=auto;html=1;exitX=1;exitY=0.5;exitDx=0;exitDy=0;entryX=0;entryY=0.5;entryDx=0;entryDy=0;dashed=1;" edge="1" parent="1" source="cN_PRAIVx_PUtPAy53k4-8" target="cN_PRAIVx_PUtPAy53k4-9">
          <mxGeometry relative="1" as="geometry" />
        </mxCell>
        <mxCell id="cN_PRAIVx_PUtPAy53k4-8" value="회원 로그인" style="rounded=1;whiteSpace=wrap;html=1;arcSize=40;fontColor=#000000;fillColor=#ffffc0;strokeColor=#ff0000;" vertex="1" parent="1">
          <mxGeometry x="414" y="270" width="120" height="40" as="geometry" />
        </mxCell>
        <mxCell id="cN_PRAIVx_PUtPAy53k4-9" value="인증" style="rounded=1;whiteSpace=wrap;html=1;arcSize=40;fontColor=#000000;fillColor=#ffffc0;strokeColor=#ff0000;" vertex="1" parent="1">
          <mxGeometry x="650" y="270" width="120" height="40" as="geometry" />
        </mxCell>
        <mxCell id="cN_PRAIVx_PUtPAy53k4-11" value="로그인 실패" style="rounded=1;whiteSpace=wrap;html=1;arcSize=40;fontColor=#000000;fillColor=#ffffc0;strokeColor=#ff0000;" vertex="1" parent="1">
          <mxGeometry x="650" y="370" width="120" height="40" as="geometry" />
        </mxCell>
        <mxCell id="cN_PRAIVx_PUtPAy53k4-12" value="게시판 정렬" style="rounded=1;whiteSpace=wrap;html=1;arcSize=40;fontColor=#000000;fillColor=#ffffc0;strokeColor=#ff0000;" vertex="1" parent="1">
          <mxGeometry x="440" y="410" width="120" height="40" as="geometry" />
        </mxCell>
        <mxCell id="cN_PRAIVx_PUtPAy53k4-13" value="게시판 검색" style="rounded=1;whiteSpace=wrap;html=1;arcSize=40;fontColor=#000000;fillColor=#ffffc0;strokeColor=#ff0000;" vertex="1" parent="1">
          <mxGeometry x="440" y="520" width="120" height="40" as="geometry" />
        </mxCell>
        <mxCell id="cN_PRAIVx_PUtPAy53k4-40" style="edgeStyle=none;rounded=0;orthogonalLoop=1;jettySize=auto;html=1;exitX=1;exitY=0.5;exitDx=0;exitDy=0;entryX=0;entryY=0.5;entryDx=0;entryDy=0;strokeColor=default;startArrow=none;startFill=0;endArrow=none;endFill=0;" edge="1" parent="1" source="cN_PRAIVx_PUtPAy53k4-14" target="cN_PRAIVx_PUtPAy53k4-34">
          <mxGeometry relative="1" as="geometry" />
        </mxCell>
        <mxCell id="cN_PRAIVx_PUtPAy53k4-14" value="게시글 쓰기,수정,삭제" style="rounded=1;whiteSpace=wrap;html=1;arcSize=40;fontColor=#000000;fillColor=#ffffc0;strokeColor=#ff0000;" vertex="1" parent="1">
          <mxGeometry x="440" y="640" width="120" height="40" as="geometry" />
        </mxCell>
        <mxCell id="cN_PRAIVx_PUtPAy53k4-41" style="edgeStyle=none;rounded=0;orthogonalLoop=1;jettySize=auto;html=1;exitX=1;exitY=0.5;exitDx=0;exitDy=0;entryX=0;entryY=0.5;entryDx=0;entryDy=0;strokeColor=default;startArrow=none;startFill=0;endArrow=none;endFill=0;" edge="1" parent="1" source="cN_PRAIVx_PUtPAy53k4-15" target="cN_PRAIVx_PUtPAy53k4-34">
          <mxGeometry relative="1" as="geometry" />
        </mxCell>
        <mxCell id="cN_PRAIVx_PUtPAy53k4-15" value="댓글 보기, 쓰기,&lt;br&gt;&amp;nbsp;수정, 삭제" style="rounded=1;whiteSpace=wrap;html=1;arcSize=40;fontColor=#000000;fillColor=#ffffc0;strokeColor=#ff0000;" vertex="1" parent="1">
          <mxGeometry x="440" y="690" width="120" height="40" as="geometry" />
        </mxCell>
        <mxCell id="cN_PRAIVx_PUtPAy53k4-25" value="&amp;lt;&amp;lt;extend&amp;gt;&amp;gt;" style="endArrow=block;html=1;rounded=0;strokeColor=default;entryX=1;entryY=0.5;entryDx=0;entryDy=0;exitX=0;exitY=0.5;exitDx=0;exitDy=0;endFill=1;dashed=1;" edge="1" parent="1" source="cN_PRAIVx_PUtPAy53k4-11" target="cN_PRAIVx_PUtPAy53k4-8">
          <mxGeometry width="50" height="50" relative="1" as="geometry">
            <mxPoint x="550" y="510" as="sourcePoint" />
            <mxPoint x="600" y="460" as="targetPoint" />
          </mxGeometry>
        </mxCell>
        <mxCell id="cN_PRAIVx_PUtPAy53k4-27" value="" style="endArrow=block;html=1;rounded=0;dashed=1;strokeColor=default;entryX=0.5;entryY=1;entryDx=0;entryDy=0;exitX=1;exitY=0;exitDx=0;exitDy=0;endFill=1;" edge="1" parent="1" source="cN_PRAIVx_PUtPAy53k4-5" target="cN_PRAIVx_PUtPAy53k4-8">
          <mxGeometry width="50" height="50" relative="1" as="geometry">
            <mxPoint x="320" y="510" as="sourcePoint" />
            <mxPoint x="370" y="460" as="targetPoint" />
          </mxGeometry>
        </mxCell>
        <mxCell id="cN_PRAIVx_PUtPAy53k4-29" value="" style="endArrow=block;html=1;rounded=0;dashed=1;strokeColor=default;exitX=1;exitY=0.25;exitDx=0;exitDy=0;endFill=1;entryX=0.5;entryY=1;entryDx=0;entryDy=0;" edge="1" parent="1" source="cN_PRAIVx_PUtPAy53k4-7" target="cN_PRAIVx_PUtPAy53k4-8">
          <mxGeometry width="50" height="50" relative="1" as="geometry">
            <mxPoint x="342" y="550" as="sourcePoint" />
            <mxPoint x="470" y="320" as="targetPoint" />
          </mxGeometry>
        </mxCell>
        <mxCell id="cN_PRAIVx_PUtPAy53k4-30" value="" style="endArrow=block;html=1;rounded=0;dashed=1;strokeColor=default;exitX=0;exitY=0.5;exitDx=0;exitDy=0;endFill=1;entryX=1;entryY=0.5;entryDx=0;entryDy=0;" edge="1" parent="1" source="cN_PRAIVx_PUtPAy53k4-12" target="cN_PRAIVx_PUtPAy53k4-5">
          <mxGeometry width="50" height="50" relative="1" as="geometry">
            <mxPoint x="320" y="510" as="sourcePoint" />
            <mxPoint x="370" y="460" as="targetPoint" />
          </mxGeometry>
        </mxCell>
        <mxCell id="cN_PRAIVx_PUtPAy53k4-31" value="" style="endArrow=block;html=1;rounded=0;dashed=1;strokeColor=default;exitX=0;exitY=0.5;exitDx=0;exitDy=0;endFill=1;entryX=1;entryY=0.5;entryDx=0;entryDy=0;" edge="1" parent="1" source="cN_PRAIVx_PUtPAy53k4-13" target="cN_PRAIVx_PUtPAy53k4-5">
          <mxGeometry width="50" height="50" relative="1" as="geometry">
            <mxPoint x="450" y="500" as="sourcePoint" />
            <mxPoint x="340" y="540" as="targetPoint" />
          </mxGeometry>
        </mxCell>
        <mxCell id="cN_PRAIVx_PUtPAy53k4-32" value="" style="endArrow=none;html=1;rounded=0;dashed=1;strokeColor=default;exitX=1;exitY=0.5;exitDx=0;exitDy=0;entryX=0;entryY=0.5;entryDx=0;entryDy=0;endFill=0;startArrow=block;startFill=1;" edge="1" parent="1" source="cN_PRAIVx_PUtPAy53k4-7" target="cN_PRAIVx_PUtPAy53k4-14">
          <mxGeometry width="50" height="50" relative="1" as="geometry">
            <mxPoint x="320" y="510" as="sourcePoint" />
            <mxPoint x="370" y="460" as="targetPoint" />
          </mxGeometry>
        </mxCell>
        <mxCell id="cN_PRAIVx_PUtPAy53k4-33" value="" style="endArrow=none;html=1;rounded=0;dashed=1;strokeColor=default;exitX=1;exitY=0.5;exitDx=0;exitDy=0;entryX=0;entryY=0.5;entryDx=0;entryDy=0;endFill=0;startArrow=block;startFill=1;" edge="1" parent="1" source="cN_PRAIVx_PUtPAy53k4-7" target="cN_PRAIVx_PUtPAy53k4-15">
          <mxGeometry width="50" height="50" relative="1" as="geometry">
            <mxPoint x="340" y="640" as="sourcePoint" />
            <mxPoint x="450" y="615" as="targetPoint" />
          </mxGeometry>
        </mxCell>
        <mxCell id="cN_PRAIVx_PUtPAy53k4-34" value="DB" style="html=1;dropTarget=0;" vertex="1" parent="1">
          <mxGeometry x="860" y="370" width="80" height="90" as="geometry" />
        </mxCell>
        <mxCell id="cN_PRAIVx_PUtPAy53k4-36" value="" style="endArrow=none;html=1;strokeWidth=2;rounded=0;strokeColor=default;entryX=0;entryY=0.5;entryDx=0;entryDy=0;exitX=1;exitY=0.5;exitDx=0;exitDy=0;" edge="1" parent="1" source="cN_PRAIVx_PUtPAy53k4-9" target="cN_PRAIVx_PUtPAy53k4-34">
          <mxGeometry width="50" height="50" relative="1" as="geometry">
            <mxPoint x="650" y="350" as="sourcePoint" />
            <mxPoint x="700" y="300" as="targetPoint" />
          </mxGeometry>
        </mxCell>
        <mxCell id="cN_PRAIVx_PUtPAy53k4-37" value="" style="endArrow=none;html=1;rounded=0;strokeColor=default;" edge="1" parent="1">
          <mxGeometry width="50" height="50" relative="1" as="geometry">
            <mxPoint x="650" y="350" as="sourcePoint" />
            <mxPoint x="700" y="300" as="targetPoint" />
          </mxGeometry>
        </mxCell>
      </root>
    </mxGraphModel>
  </diagram>
</mxfile>
